  999
DXF file created by gear template generator.  2014-04-29T11:09:13
  0
SECTION
  2
HEADER
  9
$ACADVER
  1
AC1006
  9
$INSBASE
  10
0.0
  20
0.0
  30
0.0
  9
$EXTMIN
  10
0.0
  20
0.0
  9
$EXTMAX
  10
10000.0
  20
10000.0
  0
ENDSEC
  0
SECTION
  2
ENTITIES
 0
LINE
 8
b
 10
0.3
 20
0
 30
0
 11
0.3
 21
5.8
 31
 0
 0
LINE
 8
b
 10
1.3
 20
0
 30
0
 11
1.3
 21
5.8
 31
 0
 0
LINE
 8
b
 10
2.3
 20
0
 30
0
 11
2.3
 21
5.8
 31
 0
 0
LINE
 8
b
 10
3.3
 20
0
 30
0
 11
3.3
 21
5.8
 31
 0
 0
LINE
 8
b
 10
4.3
 20
0
 30
0
 11
4.3
 21
5.8
 31
 0
 0
LINE
 8
b
 10
5.3
 20
0
 30
0
 11
5.3
 21
5.8
 31
 0
 0
LINE
 8
b
 10
0
 20
0.9
 30
0
 11
5.8
 21
0.9
 31
 0
 0
LINE
 8
b
 10
0
 20
1.9
 30
0
 11
5.8
 21
1.9
 31
 0
 0
LINE
 8
b
 10
0
 20
2.9
 30
0
 11
5.8
 21
2.9
 31
 0
 0
LINE
 8
b
 10
0
 20
3.9
 30
0
 11
5.8
 21
3.9
 31
 0
 0
LINE
 8
b
 10
0
 20
4.9
 30
0
 11
5.8
 21
4.9
 31
 0
 0
LWPOLYLINE
 8
a
 90
220
 70
1
 10
4.54428
 20
3.74344
 10
4.61626
 20
3.67691
 10
4.69983
 20
3.6257
 10
4.79179
 20
3.59177
 10
4.8886
 20
3.57644
 10
4.98654
 20
3.58029
 10
5.08185
 20
3.60317
 10
5.09722
 20
3.61473
 10
5.10536
 20
3.61482
 10
5.12396
 20
3.61311
 10
5.15215
 20
3.60741
 10
5.18867
 20
3.59577
 10
5.23193
 20
3.57656
 10
5.28006
 20
3.54852
 10
5.331
 20
3.51081
 10
5.38261
 20
3.46302
 10
5.43272
 20
3.40519
 10
5.47925
 20
3.3378
 10
5.52025
 20
3.26173
 10
5.55404
 20
3.17823
 10
5.57922
 20
3.08888
 10
5.59475
 20
2.99547
 10
5.59475
 20
2.80453
 10
5.57922
 20
2.71112
 10
5.55404
 20
2.62177
 10
5.52025
 20
2.53827
 10
5.47925
 20
2.4622
 10
5.43272
 20
2.39481
 10
5.38261
 20
2.33698
 10
5.331
 20
2.28919
 10
5.28006
 20
2.25148
 10
5.23193
 20
2.22344
 10
5.18867
 20
2.20423
 10
5.15215
 20
2.19259
 10
5.12396
 20
2.18689
 10
5.10536
 20
2.18518
 10
5.09722
 20
2.18527
 10
5.08185
 20
2.19683
 10
4.98654
 20
2.21971
 10
4.8886
 20
2.22356
 10
4.79179
 20
2.20823
 10
4.69983
 20
2.1743
 10
4.61626
 20
2.12309
 10
4.54428
 20
2.05656
 10
4.48667
 20
1.97726
 10
4.44563
 20
1.88824
 10
4.42275
 20
1.79294
 10
4.4189
 20
1.69499
 10
4.43423
 20
1.59818
 10
4.46816
 20
1.50622
 10
4.51937
 20
1.42265
 10
4.53512
 20
1.4116
 10
4.53772
 20
1.40389
 10
4.54184
 20
1.38568
 10
4.54513
 20
1.3571
 10
4.54535
 20
1.31877
 10
4.54045
 20
1.27169
 10
4.52865
 20
1.21725
 10
4.50853
 20
1.15715
 10
4.47903
 20
1.0933
 10
4.43951
 20
1.02777
 10
4.3898
 20
0.9627
 10
4.33012
 20
0.9002
 10
4.26115
 20
0.84226
 10
4.18395
 20
0.7907
 10
4.09992
 20
0.74707
 10
3.91832
 20
0.68806
 10
3.82469
 20
0.67397
 10
3.73192
 20
0.6703
 10
3.64207
 20
0.67664
 10
3.55705
 20
0.69213
 10
3.47858
 20
0.71555
 10
3.4081
 20
0.74533
 10
3.3467
 20
0.77965
 10
3.29509
 20
0.81645
 10
3.25355
 20
0.85355
 10
3.22191
 20
0.88876
 10
3.19956
 20
0.9199
 10
3.18542
 20
0.94495
 10
3.17805
 20
0.96211
 10
3.17563
 20
0.96988
 10
3.18187
 20
0.98807
 10
3.17418
 20
1.08579
 10
3.14757
 20
1.18012
 10
3.10307
 20
1.26746
 10
3.04239
 20
1.34443
 10
2.96786
 20
1.40809
 10
2.88234
 20
1.45598
 10
2.78912
 20
1.48627
 10
2.69178
 20
1.49779
 10
2.59407
 20
1.4901
 10
2.49973
 20
1.46349
 10
2.4124
 20
1.419
 10
2.33542
 20
1.35831
 10
2.27177
 20
1.28378
 10
2.26612
 20
1.26539
 10
2.2596
 20
1.26054
 10
2.24355
 20
1.25099
 10
2.21739
 20
1.23903
 10
2.18099
 20
1.22697
 10
2.1347
 20
1.21709
 10
2.07929
 20
1.21149
 10
2.01591
 20
1.21205
 10
1.94607
 20
1.22038
 10
1.87154
 20
1.23771
 10
1.79429
 20
1.26488
 10
1.7164
 20
1.30233
 10
1.63999
 20
1.35002
 10
1.56709
 20
1.40751
 10
1.49962
 20
1.47394
 10
1.38739
 20
1.62842
 10
1.34506
 20
1.71311
 10
1.3129
 20
1.8002
 10
1.29116
 20
1.88762
 10
1.27962
 20
1.97326
 10
1.27765
 20
2.05513
 10
1.2842
 20
2.13136
 10
1.29786
 20
2.20036
 10
1.31691
 20
2.26081
 10
1.33936
 20
2.31179
 10
1.36307
 20
2.35276
 10
1.38577
 20
2.38364
 10
1.40523
 20
2.40483
 10
1.41928
 20
2.41714
 10
1.42591
 20
2.42184
 10
1.44514
 20
2.42153
 10
1.5357
 20
2.45904
 10
1.6172
 20
2.51349
 10
1.68651
 20
2.5828
 10
1.74096
 20
2.6643
 10
1.77847
 20
2.75486
 10
1.79759
 20
2.85099
 10
1.79759
 20
2.94901
 10
1.77847
 20
3.04514
 10
1.74096
 20
3.1357
 10
1.68651
 20
3.2172
 10
1.6172
 20
3.28651
 10
1.5357
 20
3.34096
 10
1.44514
 20
3.37847
 10
1.42591
 20
3.37816
 10
1.41928
 20
3.38286
 10
1.40523
 20
3.39517
 10
1.38577
 20
3.41636
 10
1.36307
 20
3.44724
 10
1.33936
 20
3.48821
 10
1.31691
 20
3.53919
 10
1.29786
 20
3.59964
 10
1.2842
 20
3.66864
 10
1.27765
 20
3.74487
 10
1.27962
 20
3.82674
 10
1.29116
 20
3.91238
 10
1.3129
 20
3.9998
 10
1.34506
 20
4.08689
 10
1.38739
 20
4.17158
 10
1.49962
 20
4.32606
 10
1.56709
 20
4.39249
 10
1.63999
 20
4.44998
 10
1.7164
 20
4.49767
 10
1.79429
 20
4.53512
 10
1.87154
 20
4.56229
 10
1.94607
 20
4.57962
 10
2.01591
 20
4.58795
 10
2.07929
 20
4.58851
 10
2.1347
 20
4.58291
 10
2.18099
 20
4.57303
 10
2.21739
 20
4.56097
 10
2.24355
 20
4.54901
 10
2.2596
 20
4.53946
 10
2.26612
 20
4.53461
 10
2.27177
 20
4.51622
 10
2.33542
 20
4.44169
 10
2.4124
 20
4.381
 10
2.49973
 20
4.33651
 10
2.59407
 20
4.3099
 10
2.69178
 20
4.30221
 10
2.78912
 20
4.31373
 10
2.88234
 20
4.34402
 10
2.96786
 20
4.39191
 10
3.04239
 20
4.45557
 10
3.10307
 20
4.53254
 10
3.14757
 20
4.61988
 10
3.17418
 20
4.71421
 10
3.18187
 20
4.81193
 10
3.17563
 20
4.83012
 10
3.17805
 20
4.83789
 10
3.18542
 20
4.85505
 10
3.19956
 20
4.8801
 10
3.22191
 20
4.91124
 10
3.25355
 20
4.94645
 10
3.29509
 20
4.98355
 10
3.3467
 20
5.02035
 10
3.4081
 20
5.05467
 10
3.47858
 20
5.08445
 10
3.55705
 20
5.10787
 10
3.64207
 20
5.12336
 10
3.73192
 20
5.1297
 10
3.82469
 20
5.12603
 10
3.91832
 20
5.11194
 10
4.09992
 20
5.05293
 10
4.18395
 20
5.0093
 10
4.26115
 20
4.95774
 10
4.33012
 20
4.8998
 10
4.3898
 20
4.8373
 10
4.43951
 20
4.77223
 10
4.47903
 20
4.7067
 10
4.50853
 20
4.64285
 10
4.52865
 20
4.58275
 10
4.54045
 20
4.52831
 10
4.54535
 20
4.48123
 10
4.54513
 20
4.4429
 10
4.54184
 20
4.41432
 10
4.53772
 20
4.39611
 10
4.53512
 20
4.3884
 10
4.51937
 20
4.37735
 10
4.46816
 20
4.29378
 10
4.43423
 20
4.20182
 10
4.4189
 20
4.10501
 10
4.42275
 20
4.00706
 10
4.44563
 20
3.91176
 10
4.48667
 20
3.82274
 0
CIRCLE
 8
a
 10
3.3
 20
2.9
 40
0.5
 0
LINE
 8
c
 10
4.51353
 20
2.01832
 30
0
 11
5.32254
 21
1.43054
 31
 0
 0
LINE
 8
c
 10
2.83647
 20
1.47342
 30
0
 11
2.52746
 21
0.52236
 31
 0
 0
LINE
 8
c
 10
1.8
 20
2.9
 30
0
 11
0.8
 21
2.9
 31
 0
 0
LINE
 8
c
 10
2.83647
 20
4.32658
 30
0
 11
2.52746
 21
5.27764
 31
 0
 0
LINE
 8
c
 10
4.51353
 20
3.78168
 30
0
 11
5.32254
 21
4.36946
 31
 0
 0
CIRCLE
 8
c
 10
3.3
 20
2.9
 40
2
 0
LINE
 8
a
 10
2.46667
 20
2.9
 30
0
 11
4.13333
 21
2.9
 31
 0
 0
LINE
 8
a
 10
3.3
 20
2.06667
 30
0
 11
3.3
 21
3.73333
 31
 0
 0
CIRCLE
 8
a
 10
4.97846
 20
1.7
 40
0.5
 0
CIRCLE
 8
a
 10
2.9
 20
0.5
 40
0.5
 0
CIRCLE
 8
a
 10
0.82154
 20
1.7
 40
0.5
 0
CIRCLE
 8
a
 10
0.82154
 20
4.1
 40
0.5
 0
CIRCLE
 8
a
 10
2.9
 20
5.3
 40
0.5
 0
CIRCLE
 8
a
 10
4.97846
 20
4.1
 40
0.5
 0
CIRCLE
 8
a
 10
2.9
 20
2.9
 40
0.5
 0
LINE
 8
c
 10
4.54545
 20
1.95
 30
0
 11
5.41147
 21
1.45
 31
 0
 0
LINE
 8
c
 10
2.9
 20
1
 30
0
 11
2.9
 21
0
 31
 0
 0
LINE
 8
c
 10
1.25455
 20
1.95
 30
0
 11
0.38853
 21
1.45
 31
 0
 0
LINE
 8
c
 10
1.25455
 20
3.85
 30
0
 11
0.38853
 21
4.35
 31
 0
 0
LINE
 8
c
 10
2.9
 20
4.8
 30
0
 11
2.9
 21
5.8
 31
 0
 0
LINE
 8
c
 10
4.54545
 20
3.85
 30
0
 11
5.41147
 21
4.35
 31
 0
 0
CIRCLE
 8
c
 10
2.9
 20
2.9
 40
2.4
 0
LINE
 8
a
 10
1.93333
 20
2.9
 30
0
 11
3.86667
 21
2.9
 31
 0
 0
LINE
 8
a
 10
2.9
 20
1.93333
 30
0
 11
2.9
 21
3.86667
 31
 0
  0
ENDSEC
  0
EOF
