  999
file created by gear template generator
  0
SECTION
  2
HEADER
  9
$ACADVER
  1
AC1006
  9
$INSBASE
  10
0.0
  20
0.0
  30
0.0
  9
$EXTMIN
  10
0.0
  20
0.0
  9
$EXTMAX
  10
10000.0
  20
10000.0
  0
ENDSEC
  0
SECTION
  2
ENTITIES
  0
LINE
  8
0
  10
0.3
  20
0
  30
0
  11
0.3
  21
5.8
  31
0
  0
LINE
  8
0
  10
1.3
  20
0
  30
0
  11
1.3
  21
5.8
  31
0
  0
LINE
  8
0
  10
2.3
  20
0
  30
0
  11
2.3
  21
5.8
  31
0
  0
LINE
  8
0
  10
3.3
  20
0
  30
0
  11
3.3
  21
5.8
  31
0
  0
LINE
  8
0
  10
4.3
  20
0
  30
0
  11
4.3
  21
5.8
  31
0
  0
LINE
  8
0
  10
5.3
  20
0
  30
0
  11
5.3
  21
5.8
  31
0
  0
LINE
  8
0
  10
0
  20
0.9
  30
0
  11
5.8
  21
0.9
  31
0
  0
LINE
  8
0
  10
0
  20
1.9
  30
0
  11
5.8
  21
1.9
  31
0
  0
LINE
  8
0
  10
0
  20
2.9
  30
0
  11
5.8
  21
2.9
  31
0
  0
LINE
  8
0
  10
0
  20
3.9
  30
0
  11
5.8
  21
3.9
  31
0
  0
LINE
  8
0
  10
0
  20
4.9
  30
0
  11
5.8
  21
4.9
  31
0
  0
LINE
  8
0
  10
4.54428
  20
3.74344
  30
0
  11
4.54428
  21
3.74344
  31
0
  0
LINE
  8
0
  10
4.54428
  20
3.74344
  30
0
  11
4.61626
  21
3.67691
  31
0
  0
LINE
  8
0
  10
4.61626
  20
3.67691
  30
0
  11
4.69983
  21
3.6257
  31
0
  0
LINE
  8
0
  10
4.69983
  20
3.6257
  30
0
  11
4.79179
  21
3.59177
  31
0
  0
LINE
  8
0
  10
4.79179
  20
3.59177
  30
0
  11
4.8886
  21
3.57644
  31
0
  0
LINE
  8
0
  10
4.8886
  20
3.57644
  30
0
  11
4.98654
  21
3.58029
  31
0
  0
LINE
  8
0
  10
4.98654
  20
3.58029
  30
0
  11
5.08185
  21
3.60317
  31
0
  0
LINE
  8
0
  10
5.08185
  20
3.60317
  30
0
  11
5.09722
  21
3.61473
  31
0
  0
LINE
  8
0
  10
5.09722
  20
3.61473
  30
0
  11
5.10536
  21
3.61482
  31
0
  0
LINE
  8
0
  10
5.10536
  20
3.61482
  30
0
  11
5.12396
  21
3.61311
  31
0
  0
LINE
  8
0
  10
5.12396
  20
3.61311
  30
0
  11
5.15215
  21
3.60741
  31
0
  0
LINE
  8
0
  10
5.15215
  20
3.60741
  30
0
  11
5.18867
  21
3.59577
  31
0
  0
LINE
  8
0
  10
5.18867
  20
3.59577
  30
0
  11
5.23193
  21
3.57656
  31
0
  0
LINE
  8
0
  10
5.23193
  20
3.57656
  30
0
  11
5.28006
  21
3.54852
  31
0
  0
LINE
  8
0
  10
5.28006
  20
3.54852
  30
0
  11
5.331
  21
3.51081
  31
0
  0
LINE
  8
0
  10
5.331
  20
3.51081
  30
0
  11
5.38261
  21
3.46302
  31
0
  0
LINE
  8
0
  10
5.38261
  20
3.46302
  30
0
  11
5.43272
  21
3.40519
  31
0
  0
LINE
  8
0
  10
5.43272
  20
3.40519
  30
0
  11
5.47925
  21
3.3378
  31
0
  0
LINE
  8
0
  10
5.47925
  20
3.3378
  30
0
  11
5.52025
  21
3.26173
  31
0
  0
LINE
  8
0
  10
5.52025
  20
3.26173
  30
0
  11
5.55404
  21
3.17823
  31
0
  0
LINE
  8
0
  10
5.55404
  20
3.17823
  30
0
  11
5.57922
  21
3.08888
  31
0
  0
LINE
  8
0
  10
5.57922
  20
3.08888
  30
0
  11
5.59475
  21
2.99547
  31
0
  0
LINE
  8
0
  10
5.59475
  20
2.99547
  30
0
  11
5.59475
  21
2.80453
  31
0
  0
LINE
  8
0
  10
5.59475
  20
2.80453
  30
0
  11
5.57922
  21
2.71112
  31
0
  0
LINE
  8
0
  10
5.57922
  20
2.71112
  30
0
  11
5.55404
  21
2.62177
  31
0
  0
LINE
  8
0
  10
5.55404
  20
2.62177
  30
0
  11
5.52025
  21
2.53827
  31
0
  0
LINE
  8
0
  10
5.52025
  20
2.53827
  30
0
  11
5.47925
  21
2.4622
  31
0
  0
LINE
  8
0
  10
5.47925
  20
2.4622
  30
0
  11
5.43272
  21
2.39481
  31
0
  0
LINE
  8
0
  10
5.43272
  20
2.39481
  30
0
  11
5.38261
  21
2.33698
  31
0
  0
LINE
  8
0
  10
5.38261
  20
2.33698
  30
0
  11
5.331
  21
2.28919
  31
0
  0
LINE
  8
0
  10
5.331
  20
2.28919
  30
0
  11
5.28006
  21
2.25148
  31
0
  0
LINE
  8
0
  10
5.28006
  20
2.25148
  30
0
  11
5.23193
  21
2.22344
  31
0
  0
LINE
  8
0
  10
5.23193
  20
2.22344
  30
0
  11
5.18867
  21
2.20423
  31
0
  0
LINE
  8
0
  10
5.18867
  20
2.20423
  30
0
  11
5.15215
  21
2.19259
  31
0
  0
LINE
  8
0
  10
5.15215
  20
2.19259
  30
0
  11
5.12396
  21
2.18689
  31
0
  0
LINE
  8
0
  10
5.12396
  20
2.18689
  30
0
  11
5.10536
  21
2.18518
  31
0
  0
LINE
  8
0
  10
5.10536
  20
2.18518
  30
0
  11
5.09722
  21
2.18527
  31
0
  0
LINE
  8
0
  10
5.09722
  20
2.18527
  30
0
  11
5.08185
  21
2.19683
  31
0
  0
LINE
  8
0
  10
5.08185
  20
2.19683
  30
0
  11
4.98654
  21
2.21971
  31
0
  0
LINE
  8
0
  10
4.98654
  20
2.21971
  30
0
  11
4.8886
  21
2.22356
  31
0
  0
LINE
  8
0
  10
4.8886
  20
2.22356
  30
0
  11
4.79179
  21
2.20823
  31
0
  0
LINE
  8
0
  10
4.79179
  20
2.20823
  30
0
  11
4.69983
  21
2.1743
  31
0
  0
LINE
  8
0
  10
4.69983
  20
2.1743
  30
0
  11
4.61626
  21
2.12309
  31
0
  0
LINE
  8
0
  10
4.61626
  20
2.12309
  30
0
  11
4.54428
  21
2.05656
  31
0
  0
LINE
  8
0
  10
4.54428
  20
2.05656
  30
0
  11
4.48667
  21
1.97726
  31
0
  0
LINE
  8
0
  10
4.48667
  20
1.97726
  30
0
  11
4.44563
  21
1.88824
  31
0
  0
LINE
  8
0
  10
4.44563
  20
1.88824
  30
0
  11
4.42275
  21
1.79294
  31
0
  0
LINE
  8
0
  10
4.42275
  20
1.79294
  30
0
  11
4.4189
  21
1.69499
  31
0
  0
LINE
  8
0
  10
4.4189
  20
1.69499
  30
0
  11
4.43423
  21
1.59818
  31
0
  0
LINE
  8
0
  10
4.43423
  20
1.59818
  30
0
  11
4.46816
  21
1.50622
  31
0
  0
LINE
  8
0
  10
4.46816
  20
1.50622
  30
0
  11
4.51937
  21
1.42265
  31
0
  0
LINE
  8
0
  10
4.51937
  20
1.42265
  30
0
  11
4.53512
  21
1.4116
  31
0
  0
LINE
  8
0
  10
4.53512
  20
1.4116
  30
0
  11
4.53772
  21
1.40389
  31
0
  0
LINE
  8
0
  10
4.53772
  20
1.40389
  30
0
  11
4.54184
  21
1.38568
  31
0
  0
LINE
  8
0
  10
4.54184
  20
1.38568
  30
0
  11
4.54513
  21
1.3571
  31
0
  0
LINE
  8
0
  10
4.54513
  20
1.3571
  30
0
  11
4.54535
  21
1.31877
  31
0
  0
LINE
  8
0
  10
4.54535
  20
1.31877
  30
0
  11
4.54045
  21
1.27169
  31
0
  0
LINE
  8
0
  10
4.54045
  20
1.27169
  30
0
  11
4.52865
  21
1.21725
  31
0
  0
LINE
  8
0
  10
4.52865
  20
1.21725
  30
0
  11
4.50853
  21
1.15715
  31
0
  0
LINE
  8
0
  10
4.50853
  20
1.15715
  30
0
  11
4.47903
  21
1.0933
  31
0
  0
LINE
  8
0
  10
4.47903
  20
1.0933
  30
0
  11
4.43951
  21
1.02777
  31
0
  0
LINE
  8
0
  10
4.43951
  20
1.02777
  30
0
  11
4.3898
  21
0.9627
  31
0
  0
LINE
  8
0
  10
4.3898
  20
0.9627
  30
0
  11
4.33012
  21
0.9002
  31
0
  0
LINE
  8
0
  10
4.33012
  20
0.9002
  30
0
  11
4.26115
  21
0.84226
  31
0
  0
LINE
  8
0
  10
4.26115
  20
0.84226
  30
0
  11
4.18395
  21
0.7907
  31
0
  0
LINE
  8
0
  10
4.18395
  20
0.7907
  30
0
  11
4.09992
  21
0.74707
  31
0
  0
LINE
  8
0
  10
4.09992
  20
0.74707
  30
0
  11
3.91832
  21
0.68806
  31
0
  0
LINE
  8
0
  10
3.91832
  20
0.68806
  30
0
  11
3.82469
  21
0.67397
  31
0
  0
LINE
  8
0
  10
3.82469
  20
0.67397
  30
0
  11
3.73192
  21
0.6703
  31
0
  0
LINE
  8
0
  10
3.73192
  20
0.6703
  30
0
  11
3.64207
  21
0.67664
  31
0
  0
LINE
  8
0
  10
3.64207
  20
0.67664
  30
0
  11
3.55705
  21
0.69213
  31
0
  0
LINE
  8
0
  10
3.55705
  20
0.69213
  30
0
  11
3.47858
  21
0.71555
  31
0
  0
LINE
  8
0
  10
3.47858
  20
0.71555
  30
0
  11
3.4081
  21
0.74533
  31
0
  0
LINE
  8
0
  10
3.4081
  20
0.74533
  30
0
  11
3.3467
  21
0.77965
  31
0
  0
LINE
  8
0
  10
3.3467
  20
0.77965
  30
0
  11
3.29509
  21
0.81645
  31
0
  0
LINE
  8
0
  10
3.29509
  20
0.81645
  30
0
  11
3.25355
  21
0.85355
  31
0
  0
LINE
  8
0
  10
3.25355
  20
0.85355
  30
0
  11
3.22191
  21
0.88876
  31
0
  0
LINE
  8
0
  10
3.22191
  20
0.88876
  30
0
  11
3.19956
  21
0.9199
  31
0
  0
LINE
  8
0
  10
3.19956
  20
0.9199
  30
0
  11
3.18542
  21
0.94495
  31
0
  0
LINE
  8
0
  10
3.18542
  20
0.94495
  30
0
  11
3.17805
  21
0.96211
  31
0
  0
LINE
  8
0
  10
3.17805
  20
0.96211
  30
0
  11
3.17563
  21
0.96988
  31
0
  0
LINE
  8
0
  10
3.17563
  20
0.96988
  30
0
  11
3.18187
  21
0.98807
  31
0
  0
LINE
  8
0
  10
3.18187
  20
0.98807
  30
0
  11
3.17418
  21
1.08579
  31
0
  0
LINE
  8
0
  10
3.17418
  20
1.08579
  30
0
  11
3.14757
  21
1.18012
  31
0
  0
LINE
  8
0
  10
3.14757
  20
1.18012
  30
0
  11
3.10307
  21
1.26746
  31
0
  0
LINE
  8
0
  10
3.10307
  20
1.26746
  30
0
  11
3.04239
  21
1.34443
  31
0
  0
LINE
  8
0
  10
3.04239
  20
1.34443
  30
0
  11
2.96786
  21
1.40809
  31
0
  0
LINE
  8
0
  10
2.96786
  20
1.40809
  30
0
  11
2.88234
  21
1.45598
  31
0
  0
LINE
  8
0
  10
2.88234
  20
1.45598
  30
0
  11
2.78912
  21
1.48627
  31
0
  0
LINE
  8
0
  10
2.78912
  20
1.48627
  30
0
  11
2.69178
  21
1.49779
  31
0
  0
LINE
  8
0
  10
2.69178
  20
1.49779
  30
0
  11
2.59407
  21
1.4901
  31
0
  0
LINE
  8
0
  10
2.59407
  20
1.4901
  30
0
  11
2.49973
  21
1.46349
  31
0
  0
LINE
  8
0
  10
2.49973
  20
1.46349
  30
0
  11
2.4124
  21
1.419
  31
0
  0
LINE
  8
0
  10
2.4124
  20
1.419
  30
0
  11
2.33542
  21
1.35831
  31
0
  0
LINE
  8
0
  10
2.33542
  20
1.35831
  30
0
  11
2.27177
  21
1.28378
  31
0
  0
LINE
  8
0
  10
2.27177
  20
1.28378
  30
0
  11
2.26612
  21
1.26539
  31
0
  0
LINE
  8
0
  10
2.26612
  20
1.26539
  30
0
  11
2.2596
  21
1.26054
  31
0
  0
LINE
  8
0
  10
2.2596
  20
1.26054
  30
0
  11
2.24355
  21
1.25099
  31
0
  0
LINE
  8
0
  10
2.24355
  20
1.25099
  30
0
  11
2.21739
  21
1.23903
  31
0
  0
LINE
  8
0
  10
2.21739
  20
1.23903
  30
0
  11
2.18099
  21
1.22697
  31
0
  0
LINE
  8
0
  10
2.18099
  20
1.22697
  30
0
  11
2.1347
  21
1.21709
  31
0
  0
LINE
  8
0
  10
2.1347
  20
1.21709
  30
0
  11
2.07929
  21
1.21149
  31
0
  0
LINE
  8
0
  10
2.07929
  20
1.21149
  30
0
  11
2.01591
  21
1.21205
  31
0
  0
LINE
  8
0
  10
2.01591
  20
1.21205
  30
0
  11
1.94607
  21
1.22038
  31
0
  0
LINE
  8
0
  10
1.94607
  20
1.22038
  30
0
  11
1.87154
  21
1.23771
  31
0
  0
LINE
  8
0
  10
1.87154
  20
1.23771
  30
0
  11
1.79429
  21
1.26488
  31
0
  0
LINE
  8
0
  10
1.79429
  20
1.26488
  30
0
  11
1.7164
  21
1.30233
  31
0
  0
LINE
  8
0
  10
1.7164
  20
1.30233
  30
0
  11
1.63999
  21
1.35002
  31
0
  0
LINE
  8
0
  10
1.63999
  20
1.35002
  30
0
  11
1.56709
  21
1.40751
  31
0
  0
LINE
  8
0
  10
1.56709
  20
1.40751
  30
0
  11
1.49962
  21
1.47394
  31
0
  0
LINE
  8
0
  10
1.49962
  20
1.47394
  30
0
  11
1.38739
  21
1.62842
  31
0
  0
LINE
  8
0
  10
1.38739
  20
1.62842
  30
0
  11
1.34506
  21
1.71311
  31
0
  0
LINE
  8
0
  10
1.34506
  20
1.71311
  30
0
  11
1.3129
  21
1.8002
  31
0
  0
LINE
  8
0
  10
1.3129
  20
1.8002
  30
0
  11
1.29116
  21
1.88762
  31
0
  0
LINE
  8
0
  10
1.29116
  20
1.88762
  30
0
  11
1.27962
  21
1.97326
  31
0
  0
LINE
  8
0
  10
1.27962
  20
1.97326
  30
0
  11
1.27765
  21
2.05513
  31
0
  0
LINE
  8
0
  10
1.27765
  20
2.05513
  30
0
  11
1.2842
  21
2.13136
  31
0
  0
LINE
  8
0
  10
1.2842
  20
2.13136
  30
0
  11
1.29786
  21
2.20036
  31
0
  0
LINE
  8
0
  10
1.29786
  20
2.20036
  30
0
  11
1.31691
  21
2.26081
  31
0
  0
LINE
  8
0
  10
1.31691
  20
2.26081
  30
0
  11
1.33936
  21
2.31179
  31
0
  0
LINE
  8
0
  10
1.33936
  20
2.31179
  30
0
  11
1.36307
  21
2.35276
  31
0
  0
LINE
  8
0
  10
1.36307
  20
2.35276
  30
0
  11
1.38577
  21
2.38364
  31
0
  0
LINE
  8
0
  10
1.38577
  20
2.38364
  30
0
  11
1.40523
  21
2.40483
  31
0
  0
LINE
  8
0
  10
1.40523
  20
2.40483
  30
0
  11
1.41928
  21
2.41714
  31
0
  0
LINE
  8
0
  10
1.41928
  20
2.41714
  30
0
  11
1.42591
  21
2.42184
  31
0
  0
LINE
  8
0
  10
1.42591
  20
2.42184
  30
0
  11
1.44514
  21
2.42153
  31
0
  0
LINE
  8
0
  10
1.44514
  20
2.42153
  30
0
  11
1.5357
  21
2.45904
  31
0
  0
LINE
  8
0
  10
1.5357
  20
2.45904
  30
0
  11
1.6172
  21
2.51349
  31
0
  0
LINE
  8
0
  10
1.6172
  20
2.51349
  30
0
  11
1.68651
  21
2.5828
  31
0
  0
LINE
  8
0
  10
1.68651
  20
2.5828
  30
0
  11
1.74096
  21
2.6643
  31
0
  0
LINE
  8
0
  10
1.74096
  20
2.6643
  30
0
  11
1.77847
  21
2.75486
  31
0
  0
LINE
  8
0
  10
1.77847
  20
2.75486
  30
0
  11
1.79759
  21
2.85099
  31
0
  0
LINE
  8
0
  10
1.79759
  20
2.85099
  30
0
  11
1.79759
  21
2.94901
  31
0
  0
LINE
  8
0
  10
1.79759
  20
2.94901
  30
0
  11
1.77847
  21
3.04514
  31
0
  0
LINE
  8
0
  10
1.77847
  20
3.04514
  30
0
  11
1.74096
  21
3.1357
  31
0
  0
LINE
  8
0
  10
1.74096
  20
3.1357
  30
0
  11
1.68651
  21
3.2172
  31
0
  0
LINE
  8
0
  10
1.68651
  20
3.2172
  30
0
  11
1.6172
  21
3.28651
  31
0
  0
LINE
  8
0
  10
1.6172
  20
3.28651
  30
0
  11
1.5357
  21
3.34096
  31
0
  0
LINE
  8
0
  10
1.5357
  20
3.34096
  30
0
  11
1.44514
  21
3.37847
  31
0
  0
LINE
  8
0
  10
1.44514
  20
3.37847
  30
0
  11
1.42591
  21
3.37816
  31
0
  0
LINE
  8
0
  10
1.42591
  20
3.37816
  30
0
  11
1.41928
  21
3.38286
  31
0
  0
LINE
  8
0
  10
1.41928
  20
3.38286
  30
0
  11
1.40523
  21
3.39517
  31
0
  0
LINE
  8
0
  10
1.40523
  20
3.39517
  30
0
  11
1.38577
  21
3.41636
  31
0
  0
LINE
  8
0
  10
1.38577
  20
3.41636
  30
0
  11
1.36307
  21
3.44724
  31
0
  0
LINE
  8
0
  10
1.36307
  20
3.44724
  30
0
  11
1.33936
  21
3.48821
  31
0
  0
LINE
  8
0
  10
1.33936
  20
3.48821
  30
0
  11
1.31691
  21
3.53919
  31
0
  0
LINE
  8
0
  10
1.31691
  20
3.53919
  30
0
  11
1.29786
  21
3.59964
  31
0
  0
LINE
  8
0
  10
1.29786
  20
3.59964
  30
0
  11
1.2842
  21
3.66864
  31
0
  0
LINE
  8
0
  10
1.2842
  20
3.66864
  30
0
  11
1.27765
  21
3.74487
  31
0
  0
LINE
  8
0
  10
1.27765
  20
3.74487
  30
0
  11
1.27962
  21
3.82674
  31
0
  0
LINE
  8
0
  10
1.27962
  20
3.82674
  30
0
  11
1.29116
  21
3.91238
  31
0
  0
LINE
  8
0
  10
1.29116
  20
3.91238
  30
0
  11
1.3129
  21
3.9998
  31
0
  0
LINE
  8
0
  10
1.3129
  20
3.9998
  30
0
  11
1.34506
  21
4.08689
  31
0
  0
LINE
  8
0
  10
1.34506
  20
4.08689
  30
0
  11
1.38739
  21
4.17158
  31
0
  0
LINE
  8
0
  10
1.38739
  20
4.17158
  30
0
  11
1.49962
  21
4.32606
  31
0
  0
LINE
  8
0
  10
1.49962
  20
4.32606
  30
0
  11
1.56709
  21
4.39249
  31
0
  0
LINE
  8
0
  10
1.56709
  20
4.39249
  30
0
  11
1.63999
  21
4.44998
  31
0
  0
LINE
  8
0
  10
1.63999
  20
4.44998
  30
0
  11
1.7164
  21
4.49767
  31
0
  0
LINE
  8
0
  10
1.7164
  20
4.49767
  30
0
  11
1.79429
  21
4.53512
  31
0
  0
LINE
  8
0
  10
1.79429
  20
4.53512
  30
0
  11
1.87154
  21
4.56229
  31
0
  0
LINE
  8
0
  10
1.87154
  20
4.56229
  30
0
  11
1.94607
  21
4.57962
  31
0
  0
LINE
  8
0
  10
1.94607
  20
4.57962
  30
0
  11
2.01591
  21
4.58795
  31
0
  0
LINE
  8
0
  10
2.01591
  20
4.58795
  30
0
  11
2.07929
  21
4.58851
  31
0
  0
LINE
  8
0
  10
2.07929
  20
4.58851
  30
0
  11
2.1347
  21
4.58291
  31
0
  0
LINE
  8
0
  10
2.1347
  20
4.58291
  30
0
  11
2.18099
  21
4.57303
  31
0
  0
LINE
  8
0
  10
2.18099
  20
4.57303
  30
0
  11
2.21739
  21
4.56097
  31
0
  0
LINE
  8
0
  10
2.21739
  20
4.56097
  30
0
  11
2.24355
  21
4.54901
  31
0
  0
LINE
  8
0
  10
2.24355
  20
4.54901
  30
0
  11
2.2596
  21
4.53946
  31
0
  0
LINE
  8
0
  10
2.2596
  20
4.53946
  30
0
  11
2.26612
  21
4.53461
  31
0
  0
LINE
  8
0
  10
2.26612
  20
4.53461
  30
0
  11
2.27177
  21
4.51622
  31
0
  0
LINE
  8
0
  10
2.27177
  20
4.51622
  30
0
  11
2.33542
  21
4.44169
  31
0
  0
LINE
  8
0
  10
2.33542
  20
4.44169
  30
0
  11
2.4124
  21
4.381
  31
0
  0
LINE
  8
0
  10
2.4124
  20
4.381
  30
0
  11
2.49973
  21
4.33651
  31
0
  0
LINE
  8
0
  10
2.49973
  20
4.33651
  30
0
  11
2.59407
  21
4.3099
  31
0
  0
LINE
  8
0
  10
2.59407
  20
4.3099
  30
0
  11
2.69178
  21
4.30221
  31
0
  0
LINE
  8
0
  10
2.69178
  20
4.30221
  30
0
  11
2.78912
  21
4.31373
  31
0
  0
LINE
  8
0
  10
2.78912
  20
4.31373
  30
0
  11
2.88234
  21
4.34402
  31
0
  0
LINE
  8
0
  10
2.88234
  20
4.34402
  30
0
  11
2.96786
  21
4.39191
  31
0
  0
LINE
  8
0
  10
2.96786
  20
4.39191
  30
0
  11
3.04239
  21
4.45557
  31
0
  0
LINE
  8
0
  10
3.04239
  20
4.45557
  30
0
  11
3.10307
  21
4.53254
  31
0
  0
LINE
  8
0
  10
3.10307
  20
4.53254
  30
0
  11
3.14757
  21
4.61988
  31
0
  0
LINE
  8
0
  10
3.14757
  20
4.61988
  30
0
  11
3.17418
  21
4.71421
  31
0
  0
LINE
  8
0
  10
3.17418
  20
4.71421
  30
0
  11
3.18187
  21
4.81193
  31
0
  0
LINE
  8
0
  10
3.18187
  20
4.81193
  30
0
  11
3.17563
  21
4.83012
  31
0
  0
LINE
  8
0
  10
3.17563
  20
4.83012
  30
0
  11
3.17805
  21
4.83789
  31
0
  0
LINE
  8
0
  10
3.17805
  20
4.83789
  30
0
  11
3.18542
  21
4.85505
  31
0
  0
LINE
  8
0
  10
3.18542
  20
4.85505
  30
0
  11
3.19956
  21
4.8801
  31
0
  0
LINE
  8
0
  10
3.19956
  20
4.8801
  30
0
  11
3.22191
  21
4.91124
  31
0
  0
LINE
  8
0
  10
3.22191
  20
4.91124
  30
0
  11
3.25355
  21
4.94645
  31
0
  0
LINE
  8
0
  10
3.25355
  20
4.94645
  30
0
  11
3.29509
  21
4.98355
  31
0
  0
LINE
  8
0
  10
3.29509
  20
4.98355
  30
0
  11
3.3467
  21
5.02035
  31
0
  0
LINE
  8
0
  10
3.3467
  20
5.02035
  30
0
  11
3.4081
  21
5.05467
  31
0
  0
LINE
  8
0
  10
3.4081
  20
5.05467
  30
0
  11
3.47858
  21
5.08445
  31
0
  0
LINE
  8
0
  10
3.47858
  20
5.08445
  30
0
  11
3.55705
  21
5.10787
  31
0
  0
LINE
  8
0
  10
3.55705
  20
5.10787
  30
0
  11
3.64207
  21
5.12336
  31
0
  0
LINE
  8
0
  10
3.64207
  20
5.12336
  30
0
  11
3.73192
  21
5.1297
  31
0
  0
LINE
  8
0
  10
3.73192
  20
5.1297
  30
0
  11
3.82469
  21
5.12603
  31
0
  0
LINE
  8
0
  10
3.82469
  20
5.12603
  30
0
  11
3.91832
  21
5.11194
  31
0
  0
LINE
  8
0
  10
3.91832
  20
5.11194
  30
0
  11
4.09992
  21
5.05293
  31
0
  0
LINE
  8
0
  10
4.09992
  20
5.05293
  30
0
  11
4.18395
  21
5.0093
  31
0
  0
LINE
  8
0
  10
4.18395
  20
5.0093
  30
0
  11
4.26115
  21
4.95774
  31
0
  0
LINE
  8
0
  10
4.26115
  20
4.95774
  30
0
  11
4.33012
  21
4.8998
  31
0
  0
LINE
  8
0
  10
4.33012
  20
4.8998
  30
0
  11
4.3898
  21
4.8373
  31
0
  0
LINE
  8
0
  10
4.3898
  20
4.8373
  30
0
  11
4.43951
  21
4.77223
  31
0
  0
LINE
  8
0
  10
4.43951
  20
4.77223
  30
0
  11
4.47903
  21
4.7067
  31
0
  0
LINE
  8
0
  10
4.47903
  20
4.7067
  30
0
  11
4.50853
  21
4.64285
  31
0
  0
LINE
  8
0
  10
4.50853
  20
4.64285
  30
0
  11
4.52865
  21
4.58275
  31
0
  0
LINE
  8
0
  10
4.52865
  20
4.58275
  30
0
  11
4.54045
  21
4.52831
  31
0
  0
LINE
  8
0
  10
4.54045
  20
4.52831
  30
0
  11
4.54535
  21
4.48123
  31
0
  0
LINE
  8
0
  10
4.54535
  20
4.48123
  30
0
  11
4.54513
  21
4.4429
  31
0
  0
LINE
  8
0
  10
4.54513
  20
4.4429
  30
0
  11
4.54184
  21
4.41432
  31
0
  0
LINE
  8
0
  10
4.54184
  20
4.41432
  30
0
  11
4.53772
  21
4.39611
  31
0
  0
LINE
  8
0
  10
4.53772
  20
4.39611
  30
0
  11
4.53512
  21
4.3884
  31
0
  0
LINE
  8
0
  10
4.53512
  20
4.3884
  30
0
  11
4.51937
  21
4.37735
  31
0
  0
LINE
  8
0
  10
4.51937
  20
4.37735
  30
0
  11
4.46816
  21
4.29378
  31
0
  0
LINE
  8
0
  10
4.46816
  20
4.29378
  30
0
  11
4.43423
  21
4.20182
  31
0
  0
LINE
  8
0
  10
4.43423
  20
4.20182
  30
0
  11
4.4189
  21
4.10501
  31
0
  0
LINE
  8
0
  10
4.4189
  20
4.10501
  30
0
  11
4.42275
  21
4.00706
  31
0
  0
LINE
  8
0
  10
4.42275
  20
4.00706
  30
0
  11
4.44563
  21
3.91176
  31
0
  0
LINE
  8
0
  10
4.44563
  20
3.91176
  30
0
  11
4.48667
  21
3.82274
  31
0
  0
LINE
  8
0
  10
4.48667
  20
3.82274
  30
0
  11
4.54428
  21
3.74344
  31
0
  0
LINE
  8
0
  10
3.8
  20
2.9
  30
0
  11
3.8
  21
2.9
  31
0
  0
LINE
  8
0
  10
3.8
  20
2.9
  30
0
  11
3.78296
  21
3.02941
  31
0
  0
LINE
  8
0
  10
3.78296
  20
3.02941
  30
0
  11
3.73301
  21
3.15
  31
0
  0
LINE
  8
0
  10
3.73301
  20
3.15
  30
0
  11
3.65355
  21
3.25355
  31
0
  0
LINE
  8
0
  10
3.65355
  20
3.25355
  30
0
  11
3.55
  21
3.33301
  31
0
  0
LINE
  8
0
  10
3.55
  20
3.33301
  30
0
  11
3.42941
  21
3.38296
  31
0
  0
LINE
  8
0
  10
3.42941
  20
3.38296
  30
0
  11
3.3
  21
3.4
  31
0
  0
LINE
  8
0
  10
3.3
  20
3.4
  30
0
  11
3.17059
  21
3.38296
  31
0
  0
LINE
  8
0
  10
3.17059
  20
3.38296
  30
0
  11
3.05
  21
3.33301
  31
0
  0
LINE
  8
0
  10
3.05
  20
3.33301
  30
0
  11
2.94645
  21
3.25355
  31
0
  0
LINE
  8
0
  10
2.94645
  20
3.25355
  30
0
  11
2.86699
  21
3.15
  31
0
  0
LINE
  8
0
  10
2.86699
  20
3.15
  30
0
  11
2.81704
  21
3.02941
  31
0
  0
LINE
  8
0
  10
2.81704
  20
3.02941
  30
0
  11
2.8
  21
2.9
  31
0
  0
LINE
  8
0
  10
2.8
  20
2.9
  30
0
  11
2.81704
  21
2.77059
  31
0
  0
LINE
  8
0
  10
2.81704
  20
2.77059
  30
0
  11
2.86699
  21
2.65
  31
0
  0
LINE
  8
0
  10
2.86699
  20
2.65
  30
0
  11
2.94645
  21
2.54645
  31
0
  0
LINE
  8
0
  10
2.94645
  20
2.54645
  30
0
  11
3.05
  21
2.46699
  31
0
  0
LINE
  8
0
  10
3.05
  20
2.46699
  30
0
  11
3.17059
  21
2.41704
  31
0
  0
LINE
  8
0
  10
3.17059
  20
2.41704
  30
0
  11
3.3
  21
2.4
  31
0
  0
LINE
  8
0
  10
3.3
  20
2.4
  30
0
  11
3.42941
  21
2.41704
  31
0
  0
LINE
  8
0
  10
3.42941
  20
2.41704
  30
0
  11
3.55
  21
2.46699
  31
0
  0
LINE
  8
0
  10
3.55
  20
2.46699
  30
0
  11
3.65355
  21
2.54645
  31
0
  0
LINE
  8
0
  10
3.65355
  20
2.54645
  30
0
  11
3.73301
  21
2.65
  31
0
  0
LINE
  8
0
  10
3.73301
  20
2.65
  30
0
  11
3.78296
  21
2.77059
  31
0
  0
LINE
  8
0
  10
3.78296
  20
2.77059
  30
0
  11
3.8
  21
2.9
  31
0
  0
LINE
  8
0
  10
3.8
  20
2.9
  30
0
  11
3.8
  21
2.9
  31
0
  0
LINE
  8
0
  10
4.51353
  20
2.01832
  30
0
  11
5.32254
  21
1.43054
  31
0
  0
LINE
  8
0
  10
2.83647
  20
1.47342
  30
0
  11
2.52746
  21
0.52236
  31
0
  0
LINE
  8
0
  10
1.8
  20
2.9
  30
0
  11
0.8
  21
2.9
  31
0
  0
LINE
  8
0
  10
2.83647
  20
4.32658
  30
0
  11
2.52746
  21
5.27764
  31
0
  0
LINE
  8
0
  10
4.51353
  20
3.78168
  30
0
  11
5.32254
  21
4.36946
  31
0
  0
LINE
  8
0
  10
5.3
  20
2.9
  30
0
  11
5.3
  21
2.9
  31
0
  0
LINE
  8
0
  10
5.3
  20
2.9
  30
0
  11
5.29605
  21
3.02558
  31
0
  0
LINE
  8
0
  10
5.29605
  20
3.02558
  30
0
  11
5.28423
  21
3.15067
  31
0
  0
LINE
  8
0
  10
5.28423
  20
3.15067
  30
0
  11
5.26457
  21
3.27476
  31
0
  0
LINE
  8
0
  10
5.26457
  20
3.27476
  30
0
  11
5.23717
  21
3.39738
  31
0
  0
LINE
  8
0
  10
5.23717
  20
3.39738
  30
0
  11
5.20211
  21
3.51803
  31
0
  0
LINE
  8
0
  10
5.20211
  20
3.51803
  30
0
  11
5.15955
  21
3.63625
  31
0
  0
LINE
  8
0
  10
5.15955
  20
3.63625
  30
0
  11
5.10965
  21
3.75156
  31
0
  0
LINE
  8
0
  10
5.10965
  20
3.75156
  30
0
  11
5.05261
  21
3.86351
  31
0
  0
LINE
  8
0
  10
5.05261
  20
3.86351
  30
0
  11
4.98866
  21
3.97165
  31
0
  0
LINE
  8
0
  10
4.98866
  20
3.97165
  30
0
  11
4.91803
  21
4.07557
  31
0
  0
LINE
  8
0
  10
4.91803
  20
4.07557
  30
0
  11
4.84103
  21
4.17485
  31
0
  0
LINE
  8
0
  10
4.84103
  20
4.17485
  30
0
  11
4.75794
  21
4.26909
  31
0
  0
LINE
  8
0
  10
4.75794
  20
4.26909
  30
0
  11
4.66909
  21
4.35794
  31
0
  0
LINE
  8
0
  10
4.66909
  20
4.35794
  30
0
  11
4.57485
  21
4.44103
  31
0
  0
LINE
  8
0
  10
4.57485
  20
4.44103
  30
0
  11
4.47557
  21
4.51803
  31
0
  0
LINE
  8
0
  10
4.47557
  20
4.51803
  30
0
  11
4.37165
  21
4.58866
  31
0
  0
LINE
  8
0
  10
4.37165
  20
4.58866
  30
0
  11
4.26351
  21
4.65261
  31
0
  0
LINE
  8
0
  10
4.26351
  20
4.65261
  30
0
  11
4.15156
  21
4.70965
  31
0
  0
LINE
  8
0
  10
4.15156
  20
4.70965
  30
0
  11
4.03625
  21
4.75955
  31
0
  0
LINE
  8
0
  10
4.03625
  20
4.75955
  30
0
  11
3.91803
  21
4.80211
  31
0
  0
LINE
  8
0
  10
3.91803
  20
4.80211
  30
0
  11
3.79738
  21
4.83717
  31
0
  0
LINE
  8
0
  10
3.79738
  20
4.83717
  30
0
  11
3.67476
  21
4.86457
  31
0
  0
LINE
  8
0
  10
3.67476
  20
4.86457
  30
0
  11
3.55067
  21
4.88423
  31
0
  0
LINE
  8
0
  10
3.55067
  20
4.88423
  30
0
  11
3.42558
  21
4.89605
  31
0
  0
LINE
  8
0
  10
3.42558
  20
4.89605
  30
0
  11
3.3
  21
4.9
  31
0
  0
LINE
  8
0
  10
3.3
  20
4.9
  30
0
  11
3.17442
  21
4.89605
  31
0
  0
LINE
  8
0
  10
3.17442
  20
4.89605
  30
0
  11
3.04933
  21
4.88423
  31
0
  0
LINE
  8
0
  10
3.04933
  20
4.88423
  30
0
  11
2.92524
  21
4.86457
  31
0
  0
LINE
  8
0
  10
2.92524
  20
4.86457
  30
0
  11
2.80262
  21
4.83717
  31
0
  0
LINE
  8
0
  10
2.80262
  20
4.83717
  30
0
  11
2.68197
  21
4.80211
  31
0
  0
LINE
  8
0
  10
2.68197
  20
4.80211
  30
0
  11
2.56375
  21
4.75955
  31
0
  0
LINE
  8
0
  10
2.56375
  20
4.75955
  30
0
  11
2.44844
  21
4.70965
  31
0
  0
LINE
  8
0
  10
2.44844
  20
4.70965
  30
0
  11
2.33649
  21
4.65261
  31
0
  0
LINE
  8
0
  10
2.33649
  20
4.65261
  30
0
  11
2.22835
  21
4.58866
  31
0
  0
LINE
  8
0
  10
2.22835
  20
4.58866
  30
0
  11
2.12443
  21
4.51803
  31
0
  0
LINE
  8
0
  10
2.12443
  20
4.51803
  30
0
  11
2.02515
  21
4.44103
  31
0
  0
LINE
  8
0
  10
2.02515
  20
4.44103
  30
0
  11
1.93091
  21
4.35794
  31
0
  0
LINE
  8
0
  10
1.93091
  20
4.35794
  30
0
  11
1.84206
  21
4.26909
  31
0
  0
LINE
  8
0
  10
1.84206
  20
4.26909
  30
0
  11
1.75897
  21
4.17485
  31
0
  0
LINE
  8
0
  10
1.75897
  20
4.17485
  30
0
  11
1.68197
  21
4.07557
  31
0
  0
LINE
  8
0
  10
1.68197
  20
4.07557
  30
0
  11
1.61134
  21
3.97165
  31
0
  0
LINE
  8
0
  10
1.61134
  20
3.97165
  30
0
  11
1.54739
  21
3.86351
  31
0
  0
LINE
  8
0
  10
1.54739
  20
3.86351
  30
0
  11
1.49035
  21
3.75156
  31
0
  0
LINE
  8
0
  10
1.49035
  20
3.75156
  30
0
  11
1.44045
  21
3.63625
  31
0
  0
LINE
  8
0
  10
1.44045
  20
3.63625
  30
0
  11
1.39789
  21
3.51803
  31
0
  0
LINE
  8
0
  10
1.39789
  20
3.51803
  30
0
  11
1.36283
  21
3.39738
  31
0
  0
LINE
  8
0
  10
1.36283
  20
3.39738
  30
0
  11
1.33543
  21
3.27476
  31
0
  0
LINE
  8
0
  10
1.33543
  20
3.27476
  30
0
  11
1.31577
  21
3.15067
  31
0
  0
LINE
  8
0
  10
1.31577
  20
3.15067
  30
0
  11
1.30395
  21
3.02558
  31
0
  0
LINE
  8
0
  10
1.30395
  20
3.02558
  30
0
  11
1.3
  21
2.9
  31
0
  0
LINE
  8
0
  10
1.3
  20
2.9
  30
0
  11
1.30395
  21
2.77442
  31
0
  0
LINE
  8
0
  10
1.30395
  20
2.77442
  30
0
  11
1.31577
  21
2.64933
  31
0
  0
LINE
  8
0
  10
1.31577
  20
2.64933
  30
0
  11
1.33543
  21
2.52524
  31
0
  0
LINE
  8
0
  10
1.33543
  20
2.52524
  30
0
  11
1.36283
  21
2.40262
  31
0
  0
LINE
  8
0
  10
1.36283
  20
2.40262
  30
0
  11
1.39789
  21
2.28197
  31
0
  0
LINE
  8
0
  10
1.39789
  20
2.28197
  30
0
  11
1.44045
  21
2.16375
  31
0
  0
LINE
  8
0
  10
1.44045
  20
2.16375
  30
0
  11
1.49035
  21
2.04844
  31
0
  0
LINE
  8
0
  10
1.49035
  20
2.04844
  30
0
  11
1.54739
  21
1.93649
  31
0
  0
LINE
  8
0
  10
1.54739
  20
1.93649
  30
0
  11
1.61134
  21
1.82835
  31
0
  0
LINE
  8
0
  10
1.61134
  20
1.82835
  30
0
  11
1.68197
  21
1.72443
  31
0
  0
LINE
  8
0
  10
1.68197
  20
1.72443
  30
0
  11
1.75897
  21
1.62515
  31
0
  0
LINE
  8
0
  10
1.75897
  20
1.62515
  30
0
  11
1.84206
  21
1.53091
  31
0
  0
LINE
  8
0
  10
1.84206
  20
1.53091
  30
0
  11
1.93091
  21
1.44206
  31
0
  0
LINE
  8
0
  10
1.93091
  20
1.44206
  30
0
  11
2.02515
  21
1.35897
  31
0
  0
LINE
  8
0
  10
2.02515
  20
1.35897
  30
0
  11
2.12443
  21
1.28197
  31
0
  0
LINE
  8
0
  10
2.12443
  20
1.28197
  30
0
  11
2.22835
  21
1.21134
  31
0
  0
LINE
  8
0
  10
2.22835
  20
1.21134
  30
0
  11
2.33649
  21
1.14739
  31
0
  0
LINE
  8
0
  10
2.33649
  20
1.14739
  30
0
  11
2.44844
  21
1.09035
  31
0
  0
LINE
  8
0
  10
2.44844
  20
1.09035
  30
0
  11
2.56375
  21
1.04045
  31
0
  0
LINE
  8
0
  10
2.56375
  20
1.04045
  30
0
  11
2.68197
  21
0.99789
  31
0
  0
LINE
  8
0
  10
2.68197
  20
0.99789
  30
0
  11
2.80262
  21
0.96283
  31
0
  0
LINE
  8
0
  10
2.80262
  20
0.96283
  30
0
  11
2.92524
  21
0.93543
  31
0
  0
LINE
  8
0
  10
2.92524
  20
0.93543
  30
0
  11
3.04933
  21
0.91577
  31
0
  0
LINE
  8
0
  10
3.04933
  20
0.91577
  30
0
  11
3.17442
  21
0.90395
  31
0
  0
LINE
  8
0
  10
3.17442
  20
0.90395
  30
0
  11
3.3
  21
0.9
  31
0
  0
LINE
  8
0
  10
3.3
  20
0.9
  30
0
  11
3.42558
  21
0.90395
  31
0
  0
LINE
  8
0
  10
3.42558
  20
0.90395
  30
0
  11
3.55067
  21
0.91577
  31
0
  0
LINE
  8
0
  10
3.55067
  20
0.91577
  30
0
  11
3.67476
  21
0.93543
  31
0
  0
LINE
  8
0
  10
3.67476
  20
0.93543
  30
0
  11
3.79738
  21
0.96283
  31
0
  0
LINE
  8
0
  10
3.79738
  20
0.96283
  30
0
  11
3.91803
  21
0.99789
  31
0
  0
LINE
  8
0
  10
3.91803
  20
0.99789
  30
0
  11
4.03625
  21
1.04045
  31
0
  0
LINE
  8
0
  10
4.03625
  20
1.04045
  30
0
  11
4.15156
  21
1.09035
  31
0
  0
LINE
  8
0
  10
4.15156
  20
1.09035
  30
0
  11
4.26351
  21
1.14739
  31
0
  0
LINE
  8
0
  10
4.26351
  20
1.14739
  30
0
  11
4.37165
  21
1.21134
  31
0
  0
LINE
  8
0
  10
4.37165
  20
1.21134
  30
0
  11
4.47557
  21
1.28197
  31
0
  0
LINE
  8
0
  10
4.47557
  20
1.28197
  30
0
  11
4.57485
  21
1.35897
  31
0
  0
LINE
  8
0
  10
4.57485
  20
1.35897
  30
0
  11
4.66909
  21
1.44206
  31
0
  0
LINE
  8
0
  10
4.66909
  20
1.44206
  30
0
  11
4.75794
  21
1.53091
  31
0
  0
LINE
  8
0
  10
4.75794
  20
1.53091
  30
0
  11
4.84103
  21
1.62515
  31
0
  0
LINE
  8
0
  10
4.84103
  20
1.62515
  30
0
  11
4.91803
  21
1.72443
  31
0
  0
LINE
  8
0
  10
4.91803
  20
1.72443
  30
0
  11
4.98866
  21
1.82835
  31
0
  0
LINE
  8
0
  10
4.98866
  20
1.82835
  30
0
  11
5.05261
  21
1.93649
  31
0
  0
LINE
  8
0
  10
5.05261
  20
1.93649
  30
0
  11
5.10965
  21
2.04844
  31
0
  0
LINE
  8
0
  10
5.10965
  20
2.04844
  30
0
  11
5.15955
  21
2.16375
  31
0
  0
LINE
  8
0
  10
5.15955
  20
2.16375
  30
0
  11
5.20211
  21
2.28197
  31
0
  0
LINE
  8
0
  10
5.20211
  20
2.28197
  30
0
  11
5.23717
  21
2.40262
  31
0
  0
LINE
  8
0
  10
5.23717
  20
2.40262
  30
0
  11
5.26457
  21
2.52524
  31
0
  0
LINE
  8
0
  10
5.26457
  20
2.52524
  30
0
  11
5.28423
  21
2.64933
  31
0
  0
LINE
  8
0
  10
5.28423
  20
2.64933
  30
0
  11
5.29605
  21
2.77442
  31
0
  0
LINE
  8
0
  10
5.29605
  20
2.77442
  30
0
  11
5.3
  21
2.9
  31
0
  0
LINE
  8
0
  10
5.3
  20
2.9
  30
0
  11
5.3
  21
2.9
  31
0
  0
LINE
  8
0
  10
2.46667
  20
2.9
  30
0
  11
4.13333
  21
2.9
  31
0
  0
LINE
  8
0
  10
3.3
  20
2.06667
  30
0
  11
3.3
  21
3.73333
  31
0
  0
LINE
  8
0
  10
5.47846
  20
1.7
  30
0
  11
5.47846
  21
1.7
  31
0
  0
LINE
  8
0
  10
5.47846
  20
1.7
  30
0
  11
5.46142
  21
1.82941
  31
0
  0
LINE
  8
0
  10
5.46142
  20
1.82941
  30
0
  11
5.41147
  21
1.95
  31
0
  0
LINE
  8
0
  10
5.41147
  20
1.95
  30
0
  11
5.33201
  21
2.05355
  31
0
  0
LINE
  8
0
  10
5.33201
  20
2.05355
  30
0
  11
5.22846
  21
2.13301
  31
0
  0
LINE
  8
0
  10
5.22846
  20
2.13301
  30
0
  11
5.10787
  21
2.18296
  31
0
  0
LINE
  8
0
  10
5.10787
  20
2.18296
  30
0
  11
4.97846
  21
2.2
  31
0
  0
LINE
  8
0
  10
4.97846
  20
2.2
  30
0
  11
4.84905
  21
2.18296
  31
0
  0
LINE
  8
0
  10
4.84905
  20
2.18296
  30
0
  11
4.72846
  21
2.13301
  31
0
  0
LINE
  8
0
  10
4.72846
  20
2.13301
  30
0
  11
4.62491
  21
2.05355
  31
0
  0
LINE
  8
0
  10
4.62491
  20
2.05355
  30
0
  11
4.54545
  21
1.95
  31
0
  0
LINE
  8
0
  10
4.54545
  20
1.95
  30
0
  11
4.4955
  21
1.82941
  31
0
  0
LINE
  8
0
  10
4.4955
  20
1.82941
  30
0
  11
4.47846
  21
1.7
  31
0
  0
LINE
  8
0
  10
4.47846
  20
1.7
  30
0
  11
4.4955
  21
1.57059
  31
0
  0
LINE
  8
0
  10
4.4955
  20
1.57059
  30
0
  11
4.54545
  21
1.45
  31
0
  0
LINE
  8
0
  10
4.54545
  20
1.45
  30
0
  11
4.62491
  21
1.34645
  31
0
  0
LINE
  8
0
  10
4.62491
  20
1.34645
  30
0
  11
4.72846
  21
1.26699
  31
0
  0
LINE
  8
0
  10
4.72846
  20
1.26699
  30
0
  11
4.84905
  21
1.21704
  31
0
  0
LINE
  8
0
  10
4.84905
  20
1.21704
  30
0
  11
4.97846
  21
1.2
  31
0
  0
LINE
  8
0
  10
4.97846
  20
1.2
  30
0
  11
5.10787
  21
1.21704
  31
0
  0
LINE
  8
0
  10
5.10787
  20
1.21704
  30
0
  11
5.22846
  21
1.26699
  31
0
  0
LINE
  8
0
  10
5.22846
  20
1.26699
  30
0
  11
5.33201
  21
1.34645
  31
0
  0
LINE
  8
0
  10
5.33201
  20
1.34645
  30
0
  11
5.41147
  21
1.45
  31
0
  0
LINE
  8
0
  10
5.41147
  20
1.45
  30
0
  11
5.46142
  21
1.57059
  31
0
  0
LINE
  8
0
  10
5.46142
  20
1.57059
  30
0
  11
5.47846
  21
1.7
  31
0
  0
LINE
  8
0
  10
5.47846
  20
1.7
  30
0
  11
5.47846
  21
1.7
  31
0
  0
LINE
  8
0
  10
3.4
  20
0.5
  30
0
  11
3.4
  21
0.5
  31
0
  0
LINE
  8
0
  10
3.4
  20
0.5
  30
0
  11
3.38296
  21
0.62941
  31
0
  0
LINE
  8
0
  10
3.38296
  20
0.62941
  30
0
  11
3.33301
  21
0.75
  31
0
  0
LINE
  8
0
  10
3.33301
  20
0.75
  30
0
  11
3.25355
  21
0.85355
  31
0
  0
LINE
  8
0
  10
3.25355
  20
0.85355
  30
0
  11
3.15
  21
0.93301
  31
0
  0
LINE
  8
0
  10
3.15
  20
0.93301
  30
0
  11
3.02941
  21
0.98296
  31
0
  0
LINE
  8
0
  10
3.02941
  20
0.98296
  30
0
  11
2.9
  21
1
  31
0
  0
LINE
  8
0
  10
2.9
  20
1
  30
0
  11
2.77059
  21
0.98296
  31
0
  0
LINE
  8
0
  10
2.77059
  20
0.98296
  30
0
  11
2.65
  21
0.93301
  31
0
  0
LINE
  8
0
  10
2.65
  20
0.93301
  30
0
  11
2.54645
  21
0.85355
  31
0
  0
LINE
  8
0
  10
2.54645
  20
0.85355
  30
0
  11
2.46699
  21
0.75
  31
0
  0
LINE
  8
0
  10
2.46699
  20
0.75
  30
0
  11
2.41704
  21
0.62941
  31
0
  0
LINE
  8
0
  10
2.41704
  20
0.62941
  30
0
  11
2.4
  21
0.5
  31
0
  0
LINE
  8
0
  10
2.4
  20
0.5
  30
0
  11
2.41704
  21
0.37059
  31
0
  0
LINE
  8
0
  10
2.41704
  20
0.37059
  30
0
  11
2.46699
  21
0.25
  31
0
  0
LINE
  8
0
  10
2.46699
  20
0.25
  30
0
  11
2.54645
  21
0.14645
  31
0
  0
LINE
  8
0
  10
2.54645
  20
0.14645
  30
0
  11
2.65
  21
0.06699
  31
0
  0
LINE
  8
0
  10
2.65
  20
0.06699
  30
0
  11
2.77059
  21
0.01704
  31
0
  0
LINE
  8
0
  10
2.77059
  20
0.01704
  30
0
  11
2.9
  21
0
  31
0
  0
LINE
  8
0
  10
2.9
  20
0
  30
0
  11
3.02941
  21
0.01704
  31
0
  0
LINE
  8
0
  10
3.02941
  20
0.01704
  30
0
  11
3.15
  21
0.06699
  31
0
  0
LINE
  8
0
  10
3.15
  20
0.06699
  30
0
  11
3.25355
  21
0.14645
  31
0
  0
LINE
  8
0
  10
3.25355
  20
0.14645
  30
0
  11
3.33301
  21
0.25
  31
0
  0
LINE
  8
0
  10
3.33301
  20
0.25
  30
0
  11
3.38296
  21
0.37059
  31
0
  0
LINE
  8
0
  10
3.38296
  20
0.37059
  30
0
  11
3.4
  21
0.5
  31
0
  0
LINE
  8
0
  10
3.4
  20
0.5
  30
0
  11
3.4
  21
0.5
  31
0
  0
LINE
  8
0
  10
1.32154
  20
1.7
  30
0
  11
1.32154
  21
1.7
  31
0
  0
LINE
  8
0
  10
1.32154
  20
1.7
  30
0
  11
1.3045
  21
1.82941
  31
0
  0
LINE
  8
0
  10
1.3045
  20
1.82941
  30
0
  11
1.25455
  21
1.95
  31
0
  0
LINE
  8
0
  10
1.25455
  20
1.95
  30
0
  11
1.17509
  21
2.05355
  31
0
  0
LINE
  8
0
  10
1.17509
  20
2.05355
  30
0
  11
1.07154
  21
2.13301
  31
0
  0
LINE
  8
0
  10
1.07154
  20
2.13301
  30
0
  11
0.95095
  21
2.18296
  31
0
  0
LINE
  8
0
  10
0.95095
  20
2.18296
  30
0
  11
0.82154
  21
2.2
  31
0
  0
LINE
  8
0
  10
0.82154
  20
2.2
  30
0
  11
0.69213
  21
2.18296
  31
0
  0
LINE
  8
0
  10
0.69213
  20
2.18296
  30
0
  11
0.57154
  21
2.13301
  31
0
  0
LINE
  8
0
  10
0.57154
  20
2.13301
  30
0
  11
0.46799
  21
2.05355
  31
0
  0
LINE
  8
0
  10
0.46799
  20
2.05355
  30
0
  11
0.38853
  21
1.95
  31
0
  0
LINE
  8
0
  10
0.38853
  20
1.95
  30
0
  11
0.33858
  21
1.82941
  31
0
  0
LINE
  8
0
  10
0.33858
  20
1.82941
  30
0
  11
0.32154
  21
1.7
  31
0
  0
LINE
  8
0
  10
0.32154
  20
1.7
  30
0
  11
0.33858
  21
1.57059
  31
0
  0
LINE
  8
0
  10
0.33858
  20
1.57059
  30
0
  11
0.38853
  21
1.45
  31
0
  0
LINE
  8
0
  10
0.38853
  20
1.45
  30
0
  11
0.46799
  21
1.34645
  31
0
  0
LINE
  8
0
  10
0.46799
  20
1.34645
  30
0
  11
0.57154
  21
1.26699
  31
0
  0
LINE
  8
0
  10
0.57154
  20
1.26699
  30
0
  11
0.69213
  21
1.21704
  31
0
  0
LINE
  8
0
  10
0.69213
  20
1.21704
  30
0
  11
0.82154
  21
1.2
  31
0
  0
LINE
  8
0
  10
0.82154
  20
1.2
  30
0
  11
0.95095
  21
1.21704
  31
0
  0
LINE
  8
0
  10
0.95095
  20
1.21704
  30
0
  11
1.07154
  21
1.26699
  31
0
  0
LINE
  8
0
  10
1.07154
  20
1.26699
  30
0
  11
1.17509
  21
1.34645
  31
0
  0
LINE
  8
0
  10
1.17509
  20
1.34645
  30
0
  11
1.25455
  21
1.45
  31
0
  0
LINE
  8
0
  10
1.25455
  20
1.45
  30
0
  11
1.3045
  21
1.57059
  31
0
  0
LINE
  8
0
  10
1.3045
  20
1.57059
  30
0
  11
1.32154
  21
1.7
  31
0
  0
LINE
  8
0
  10
1.32154
  20
1.7
  30
0
  11
1.32154
  21
1.7
  31
0
  0
LINE
  8
0
  10
1.32154
  20
4.1
  30
0
  11
1.32154
  21
4.1
  31
0
  0
LINE
  8
0
  10
1.32154
  20
4.1
  30
0
  11
1.3045
  21
4.22941
  31
0
  0
LINE
  8
0
  10
1.3045
  20
4.22941
  30
0
  11
1.25455
  21
4.35
  31
0
  0
LINE
  8
0
  10
1.25455
  20
4.35
  30
0
  11
1.17509
  21
4.45355
  31
0
  0
LINE
  8
0
  10
1.17509
  20
4.45355
  30
0
  11
1.07154
  21
4.53301
  31
0
  0
LINE
  8
0
  10
1.07154
  20
4.53301
  30
0
  11
0.95095
  21
4.58296
  31
0
  0
LINE
  8
0
  10
0.95095
  20
4.58296
  30
0
  11
0.82154
  21
4.6
  31
0
  0
LINE
  8
0
  10
0.82154
  20
4.6
  30
0
  11
0.69213
  21
4.58296
  31
0
  0
LINE
  8
0
  10
0.69213
  20
4.58296
  30
0
  11
0.57154
  21
4.53301
  31
0
  0
LINE
  8
0
  10
0.57154
  20
4.53301
  30
0
  11
0.46799
  21
4.45355
  31
0
  0
LINE
  8
0
  10
0.46799
  20
4.45355
  30
0
  11
0.38853
  21
4.35
  31
0
  0
LINE
  8
0
  10
0.38853
  20
4.35
  30
0
  11
0.33858
  21
4.22941
  31
0
  0
LINE
  8
0
  10
0.33858
  20
4.22941
  30
0
  11
0.32154
  21
4.1
  31
0
  0
LINE
  8
0
  10
0.32154
  20
4.1
  30
0
  11
0.33858
  21
3.97059
  31
0
  0
LINE
  8
0
  10
0.33858
  20
3.97059
  30
0
  11
0.38853
  21
3.85
  31
0
  0
LINE
  8
0
  10
0.38853
  20
3.85
  30
0
  11
0.46799
  21
3.74645
  31
0
  0
LINE
  8
0
  10
0.46799
  20
3.74645
  30
0
  11
0.57154
  21
3.66699
  31
0
  0
LINE
  8
0
  10
0.57154
  20
3.66699
  30
0
  11
0.69213
  21
3.61704
  31
0
  0
LINE
  8
0
  10
0.69213
  20
3.61704
  30
0
  11
0.82154
  21
3.6
  31
0
  0
LINE
  8
0
  10
0.82154
  20
3.6
  30
0
  11
0.95095
  21
3.61704
  31
0
  0
LINE
  8
0
  10
0.95095
  20
3.61704
  30
0
  11
1.07154
  21
3.66699
  31
0
  0
LINE
  8
0
  10
1.07154
  20
3.66699
  30
0
  11
1.17509
  21
3.74645
  31
0
  0
LINE
  8
0
  10
1.17509
  20
3.74645
  30
0
  11
1.25455
  21
3.85
  31
0
  0
LINE
  8
0
  10
1.25455
  20
3.85
  30
0
  11
1.3045
  21
3.97059
  31
0
  0
LINE
  8
0
  10
1.3045
  20
3.97059
  30
0
  11
1.32154
  21
4.1
  31
0
  0
LINE
  8
0
  10
1.32154
  20
4.1
  30
0
  11
1.32154
  21
4.1
  31
0
  0
LINE
  8
0
  10
3.4
  20
5.3
  30
0
  11
3.4
  21
5.3
  31
0
  0
LINE
  8
0
  10
3.4
  20
5.3
  30
0
  11
3.38296
  21
5.42941
  31
0
  0
LINE
  8
0
  10
3.38296
  20
5.42941
  30
0
  11
3.33301
  21
5.55
  31
0
  0
LINE
  8
0
  10
3.33301
  20
5.55
  30
0
  11
3.25355
  21
5.65355
  31
0
  0
LINE
  8
0
  10
3.25355
  20
5.65355
  30
0
  11
3.15
  21
5.73301
  31
0
  0
LINE
  8
0
  10
3.15
  20
5.73301
  30
0
  11
3.02941
  21
5.78296
  31
0
  0
LINE
  8
0
  10
3.02941
  20
5.78296
  30
0
  11
2.9
  21
5.8
  31
0
  0
LINE
  8
0
  10
2.9
  20
5.8
  30
0
  11
2.77059
  21
5.78296
  31
0
  0
LINE
  8
0
  10
2.77059
  20
5.78296
  30
0
  11
2.65
  21
5.73301
  31
0
  0
LINE
  8
0
  10
2.65
  20
5.73301
  30
0
  11
2.54645
  21
5.65355
  31
0
  0
LINE
  8
0
  10
2.54645
  20
5.65355
  30
0
  11
2.46699
  21
5.55
  31
0
  0
LINE
  8
0
  10
2.46699
  20
5.55
  30
0
  11
2.41704
  21
5.42941
  31
0
  0
LINE
  8
0
  10
2.41704
  20
5.42941
  30
0
  11
2.4
  21
5.3
  31
0
  0
LINE
  8
0
  10
2.4
  20
5.3
  30
0
  11
2.41704
  21
5.17059
  31
0
  0
LINE
  8
0
  10
2.41704
  20
5.17059
  30
0
  11
2.46699
  21
5.05
  31
0
  0
LINE
  8
0
  10
2.46699
  20
5.05
  30
0
  11
2.54645
  21
4.94645
  31
0
  0
LINE
  8
0
  10
2.54645
  20
4.94645
  30
0
  11
2.65
  21
4.86699
  31
0
  0
LINE
  8
0
  10
2.65
  20
4.86699
  30
0
  11
2.77059
  21
4.81704
  31
0
  0
LINE
  8
0
  10
2.77059
  20
4.81704
  30
0
  11
2.9
  21
4.8
  31
0
  0
LINE
  8
0
  10
2.9
  20
4.8
  30
0
  11
3.02941
  21
4.81704
  31
0
  0
LINE
  8
0
  10
3.02941
  20
4.81704
  30
0
  11
3.15
  21
4.86699
  31
0
  0
LINE
  8
0
  10
3.15
  20
4.86699
  30
0
  11
3.25355
  21
4.94645
  31
0
  0
LINE
  8
0
  10
3.25355
  20
4.94645
  30
0
  11
3.33301
  21
5.05
  31
0
  0
LINE
  8
0
  10
3.33301
  20
5.05
  30
0
  11
3.38296
  21
5.17059
  31
0
  0
LINE
  8
0
  10
3.38296
  20
5.17059
  30
0
  11
3.4
  21
5.3
  31
0
  0
LINE
  8
0
  10
3.4
  20
5.3
  30
0
  11
3.4
  21
5.3
  31
0
  0
LINE
  8
0
  10
5.47846
  20
4.1
  30
0
  11
5.47846
  21
4.1
  31
0
  0
LINE
  8
0
  10
5.47846
  20
4.1
  30
0
  11
5.46142
  21
4.22941
  31
0
  0
LINE
  8
0
  10
5.46142
  20
4.22941
  30
0
  11
5.41147
  21
4.35
  31
0
  0
LINE
  8
0
  10
5.41147
  20
4.35
  30
0
  11
5.33201
  21
4.45355
  31
0
  0
LINE
  8
0
  10
5.33201
  20
4.45355
  30
0
  11
5.22846
  21
4.53301
  31
0
  0
LINE
  8
0
  10
5.22846
  20
4.53301
  30
0
  11
5.10787
  21
4.58296
  31
0
  0
LINE
  8
0
  10
5.10787
  20
4.58296
  30
0
  11
4.97846
  21
4.6
  31
0
  0
LINE
  8
0
  10
4.97846
  20
4.6
  30
0
  11
4.84905
  21
4.58296
  31
0
  0
LINE
  8
0
  10
4.84905
  20
4.58296
  30
0
  11
4.72846
  21
4.53301
  31
0
  0
LINE
  8
0
  10
4.72846
  20
4.53301
  30
0
  11
4.62491
  21
4.45355
  31
0
  0
LINE
  8
0
  10
4.62491
  20
4.45355
  30
0
  11
4.54545
  21
4.35
  31
0
  0
LINE
  8
0
  10
4.54545
  20
4.35
  30
0
  11
4.4955
  21
4.22941
  31
0
  0
LINE
  8
0
  10
4.4955
  20
4.22941
  30
0
  11
4.47846
  21
4.1
  31
0
  0
LINE
  8
0
  10
4.47846
  20
4.1
  30
0
  11
4.4955
  21
3.97059
  31
0
  0
LINE
  8
0
  10
4.4955
  20
3.97059
  30
0
  11
4.54545
  21
3.85
  31
0
  0
LINE
  8
0
  10
4.54545
  20
3.85
  30
0
  11
4.62491
  21
3.74645
  31
0
  0
LINE
  8
0
  10
4.62491
  20
3.74645
  30
0
  11
4.72846
  21
3.66699
  31
0
  0
LINE
  8
0
  10
4.72846
  20
3.66699
  30
0
  11
4.84905
  21
3.61704
  31
0
  0
LINE
  8
0
  10
4.84905
  20
3.61704
  30
0
  11
4.97846
  21
3.6
  31
0
  0
LINE
  8
0
  10
4.97846
  20
3.6
  30
0
  11
5.10787
  21
3.61704
  31
0
  0
LINE
  8
0
  10
5.10787
  20
3.61704
  30
0
  11
5.22846
  21
3.66699
  31
0
  0
LINE
  8
0
  10
5.22846
  20
3.66699
  30
0
  11
5.33201
  21
3.74645
  31
0
  0
LINE
  8
0
  10
5.33201
  20
3.74645
  30
0
  11
5.41147
  21
3.85
  31
0
  0
LINE
  8
0
  10
5.41147
  20
3.85
  30
0
  11
5.46142
  21
3.97059
  31
0
  0
LINE
  8
0
  10
5.46142
  20
3.97059
  30
0
  11
5.47846
  21
4.1
  31
0
  0
LINE
  8
0
  10
5.47846
  20
4.1
  30
0
  11
5.47846
  21
4.1
  31
0
  0
LINE
  8
0
  10
3.4
  20
2.9
  30
0
  11
3.4
  21
2.9
  31
0
  0
LINE
  8
0
  10
3.4
  20
2.9
  30
0
  11
3.38296
  21
3.02941
  31
0
  0
LINE
  8
0
  10
3.38296
  20
3.02941
  30
0
  11
3.33301
  21
3.15
  31
0
  0
LINE
  8
0
  10
3.33301
  20
3.15
  30
0
  11
3.25355
  21
3.25355
  31
0
  0
LINE
  8
0
  10
3.25355
  20
3.25355
  30
0
  11
3.15
  21
3.33301
  31
0
  0
LINE
  8
0
  10
3.15
  20
3.33301
  30
0
  11
3.02941
  21
3.38296
  31
0
  0
LINE
  8
0
  10
3.02941
  20
3.38296
  30
0
  11
2.9
  21
3.4
  31
0
  0
LINE
  8
0
  10
2.9
  20
3.4
  30
0
  11
2.77059
  21
3.38296
  31
0
  0
LINE
  8
0
  10
2.77059
  20
3.38296
  30
0
  11
2.65
  21
3.33301
  31
0
  0
LINE
  8
0
  10
2.65
  20
3.33301
  30
0
  11
2.54645
  21
3.25355
  31
0
  0
LINE
  8
0
  10
2.54645
  20
3.25355
  30
0
  11
2.46699
  21
3.15
  31
0
  0
LINE
  8
0
  10
2.46699
  20
3.15
  30
0
  11
2.41704
  21
3.02941
  31
0
  0
LINE
  8
0
  10
2.41704
  20
3.02941
  30
0
  11
2.4
  21
2.9
  31
0
  0
LINE
  8
0
  10
2.4
  20
2.9
  30
0
  11
2.41704
  21
2.77059
  31
0
  0
LINE
  8
0
  10
2.41704
  20
2.77059
  30
0
  11
2.46699
  21
2.65
  31
0
  0
LINE
  8
0
  10
2.46699
  20
2.65
  30
0
  11
2.54645
  21
2.54645
  31
0
  0
LINE
  8
0
  10
2.54645
  20
2.54645
  30
0
  11
2.65
  21
2.46699
  31
0
  0
LINE
  8
0
  10
2.65
  20
2.46699
  30
0
  11
2.77059
  21
2.41704
  31
0
  0
LINE
  8
0
  10
2.77059
  20
2.41704
  30
0
  11
2.9
  21
2.4
  31
0
  0
LINE
  8
0
  10
2.9
  20
2.4
  30
0
  11
3.02941
  21
2.41704
  31
0
  0
LINE
  8
0
  10
3.02941
  20
2.41704
  30
0
  11
3.15
  21
2.46699
  31
0
  0
LINE
  8
0
  10
3.15
  20
2.46699
  30
0
  11
3.25355
  21
2.54645
  31
0
  0
LINE
  8
0
  10
3.25355
  20
2.54645
  30
0
  11
3.33301
  21
2.65
  31
0
  0
LINE
  8
0
  10
3.33301
  20
2.65
  30
0
  11
3.38296
  21
2.77059
  31
0
  0
LINE
  8
0
  10
3.38296
  20
2.77059
  30
0
  11
3.4
  21
2.9
  31
0
  0
LINE
  8
0
  10
3.4
  20
2.9
  30
0
  11
3.4
  21
2.9
  31
0
  0
LINE
  8
0
  10
4.54545
  20
1.95
  30
0
  11
5.41147
  21
1.45
  31
0
  0
LINE
  8
0
  10
2.9
  20
1
  30
0
  11
2.9
  21
0
  31
0
  0
LINE
  8
0
  10
1.25455
  20
1.95
  30
0
  11
0.38853
  21
1.45
  31
0
  0
LINE
  8
0
  10
1.25455
  20
3.85
  30
0
  11
0.38853
  21
4.35
  31
0
  0
LINE
  8
0
  10
2.9
  20
4.8
  30
0
  11
2.9
  21
5.8
  31
0
  0
LINE
  8
0
  10
4.54545
  20
3.85
  30
0
  11
5.41147
  21
4.35
  31
0
  0
LINE
  8
0
  10
5.3
  20
2.9
  30
0
  11
5.3
  21
2.9
  31
0
  0
LINE
  8
0
  10
5.3
  20
2.9
  30
0
  11
5.29526
  21
3.0507
  31
0
  0
LINE
  8
0
  10
5.29526
  20
3.0507
  30
0
  11
5.28108
  21
3.2008
  31
0
  0
LINE
  8
0
  10
5.28108
  20
3.2008
  30
0
  11
5.25749
  21
3.34972
  31
0
  0
LINE
  8
0
  10
5.25749
  20
3.34972
  30
0
  11
5.2246
  21
3.49686
  31
0
  0
LINE
  8
0
  10
5.2246
  20
3.49686
  30
0
  11
5.18254
  21
3.64164
  31
0
  0
LINE
  8
0
  10
5.18254
  20
3.64164
  30
0
  11
5.13146
  21
3.7835
  31
0
  0
LINE
  8
0
  10
5.13146
  20
3.7835
  30
0
  11
5.07158
  21
3.92187
  31
0
  0
LINE
  8
0
  10
5.07158
  20
3.92187
  30
0
  11
5.00314
  21
4.05621
  31
0
  0
LINE
  8
0
  10
5.00314
  20
4.05621
  30
0
  11
4.92639
  21
4.18598
  31
0
  0
LINE
  8
0
  10
4.92639
  20
4.18598
  30
0
  11
4.84164
  21
4.31068
  31
0
  0
LINE
  8
0
  10
4.84164
  20
4.31068
  30
0
  11
4.74923
  21
4.42982
  31
0
  0
LINE
  8
0
  10
4.74923
  20
4.42982
  30
0
  11
4.64952
  21
4.54291
  31
0
  0
LINE
  8
0
  10
4.64952
  20
4.54291
  30
0
  11
4.54291
  21
4.64952
  31
0
  0
LINE
  8
0
  10
4.54291
  20
4.64952
  30
0
  11
4.42982
  21
4.74923
  31
0
  0
LINE
  8
0
  10
4.42982
  20
4.74923
  30
0
  11
4.31068
  21
4.84164
  31
0
  0
LINE
  8
0
  10
4.31068
  20
4.84164
  30
0
  11
4.18598
  21
4.92639
  31
0
  0
LINE
  8
0
  10
4.18598
  20
4.92639
  30
0
  11
4.05621
  21
5.00314
  31
0
  0
LINE
  8
0
  10
4.05621
  20
5.00314
  30
0
  11
3.92187
  21
5.07158
  31
0
  0
LINE
  8
0
  10
3.92187
  20
5.07158
  30
0
  11
3.7835
  21
5.13146
  31
0
  0
LINE
  8
0
  10
3.7835
  20
5.13146
  30
0
  11
3.64164
  21
5.18254
  31
0
  0
LINE
  8
0
  10
3.64164
  20
5.18254
  30
0
  11
3.49686
  21
5.2246
  31
0
  0
LINE
  8
0
  10
3.49686
  20
5.2246
  30
0
  11
3.34972
  21
5.25749
  31
0
  0
LINE
  8
0
  10
3.34972
  20
5.25749
  30
0
  11
3.2008
  21
5.28108
  31
0
  0
LINE
  8
0
  10
3.2008
  20
5.28108
  30
0
  11
3.0507
  21
5.29526
  31
0
  0
LINE
  8
0
  10
3.0507
  20
5.29526
  30
0
  11
2.9
  21
5.3
  31
0
  0
LINE
  8
0
  10
2.9
  20
5.3
  30
0
  11
2.7493
  21
5.29526
  31
0
  0
LINE
  8
0
  10
2.7493
  20
5.29526
  30
0
  11
2.5992
  21
5.28108
  31
0
  0
LINE
  8
0
  10
2.5992
  20
5.28108
  30
0
  11
2.45028
  21
5.25749
  31
0
  0
LINE
  8
0
  10
2.45028
  20
5.25749
  30
0
  11
2.30314
  21
5.2246
  31
0
  0
LINE
  8
0
  10
2.30314
  20
5.2246
  30
0
  11
2.15836
  21
5.18254
  31
0
  0
LINE
  8
0
  10
2.15836
  20
5.18254
  30
0
  11
2.0165
  21
5.13146
  31
0
  0
LINE
  8
0
  10
2.0165
  20
5.13146
  30
0
  11
1.87813
  21
5.07158
  31
0
  0
LINE
  8
0
  10
1.87813
  20
5.07158
  30
0
  11
1.74379
  21
5.00314
  31
0
  0
LINE
  8
0
  10
1.74379
  20
5.00314
  30
0
  11
1.61402
  21
4.92639
  31
0
  0
LINE
  8
0
  10
1.61402
  20
4.92639
  30
0
  11
1.48932
  21
4.84164
  31
0
  0
LINE
  8
0
  10
1.48932
  20
4.84164
  30
0
  11
1.37018
  21
4.74923
  31
0
  0
LINE
  8
0
  10
1.37018
  20
4.74923
  30
0
  11
1.25709
  21
4.64952
  31
0
  0
LINE
  8
0
  10
1.25709
  20
4.64952
  30
0
  11
1.15048
  21
4.54291
  31
0
  0
LINE
  8
0
  10
1.15048
  20
4.54291
  30
0
  11
1.05077
  21
4.42982
  31
0
  0
LINE
  8
0
  10
1.05077
  20
4.42982
  30
0
  11
0.95836
  21
4.31068
  31
0
  0
LINE
  8
0
  10
0.95836
  20
4.31068
  30
0
  11
0.87361
  21
4.18598
  31
0
  0
LINE
  8
0
  10
0.87361
  20
4.18598
  30
0
  11
0.79686
  21
4.05621
  31
0
  0
LINE
  8
0
  10
0.79686
  20
4.05621
  30
0
  11
0.72842
  21
3.92187
  31
0
  0
LINE
  8
0
  10
0.72842
  20
3.92187
  30
0
  11
0.66854
  21
3.7835
  31
0
  0
LINE
  8
0
  10
0.66854
  20
3.7835
  30
0
  11
0.61746
  21
3.64164
  31
0
  0
LINE
  8
0
  10
0.61746
  20
3.64164
  30
0
  11
0.5754
  21
3.49686
  31
0
  0
LINE
  8
0
  10
0.5754
  20
3.49686
  30
0
  11
0.54251
  21
3.34972
  31
0
  0
LINE
  8
0
  10
0.54251
  20
3.34972
  30
0
  11
0.51892
  21
3.2008
  31
0
  0
LINE
  8
0
  10
0.51892
  20
3.2008
  30
0
  11
0.50474
  21
3.0507
  31
0
  0
LINE
  8
0
  10
0.50474
  20
3.0507
  30
0
  11
0.5
  21
2.9
  31
0
  0
LINE
  8
0
  10
0.5
  20
2.9
  30
0
  11
0.50474
  21
2.7493
  31
0
  0
LINE
  8
0
  10
0.50474
  20
2.7493
  30
0
  11
0.51892
  21
2.5992
  31
0
  0
LINE
  8
0
  10
0.51892
  20
2.5992
  30
0
  11
0.54251
  21
2.45028
  31
0
  0
LINE
  8
0
  10
0.54251
  20
2.45028
  30
0
  11
0.5754
  21
2.30314
  31
0
  0
LINE
  8
0
  10
0.5754
  20
2.30314
  30
0
  11
0.61746
  21
2.15836
  31
0
  0
LINE
  8
0
  10
0.61746
  20
2.15836
  30
0
  11
0.66854
  21
2.0165
  31
0
  0
LINE
  8
0
  10
0.66854
  20
2.0165
  30
0
  11
0.72842
  21
1.87813
  31
0
  0
LINE
  8
0
  10
0.72842
  20
1.87813
  30
0
  11
0.79686
  21
1.74379
  31
0
  0
LINE
  8
0
  10
0.79686
  20
1.74379
  30
0
  11
0.87361
  21
1.61402
  31
0
  0
LINE
  8
0
  10
0.87361
  20
1.61402
  30
0
  11
0.95836
  21
1.48932
  31
0
  0
LINE
  8
0
  10
0.95836
  20
1.48932
  30
0
  11
1.05077
  21
1.37018
  31
0
  0
LINE
  8
0
  10
1.05077
  20
1.37018
  30
0
  11
1.15048
  21
1.25709
  31
0
  0
LINE
  8
0
  10
1.15048
  20
1.25709
  30
0
  11
1.25709
  21
1.15048
  31
0
  0
LINE
  8
0
  10
1.25709
  20
1.15048
  30
0
  11
1.37018
  21
1.05077
  31
0
  0
LINE
  8
0
  10
1.37018
  20
1.05077
  30
0
  11
1.48932
  21
0.95836
  31
0
  0
LINE
  8
0
  10
1.48932
  20
0.95836
  30
0
  11
1.61402
  21
0.87361
  31
0
  0
LINE
  8
0
  10
1.61402
  20
0.87361
  30
0
  11
1.74379
  21
0.79686
  31
0
  0
LINE
  8
0
  10
1.74379
  20
0.79686
  30
0
  11
1.87813
  21
0.72842
  31
0
  0
LINE
  8
0
  10
1.87813
  20
0.72842
  30
0
  11
2.0165
  21
0.66854
  31
0
  0
LINE
  8
0
  10
2.0165
  20
0.66854
  30
0
  11
2.15836
  21
0.61746
  31
0
  0
LINE
  8
0
  10
2.15836
  20
0.61746
  30
0
  11
2.30314
  21
0.5754
  31
0
  0
LINE
  8
0
  10
2.30314
  20
0.5754
  30
0
  11
2.45028
  21
0.54251
  31
0
  0
LINE
  8
0
  10
2.45028
  20
0.54251
  30
0
  11
2.5992
  21
0.51892
  31
0
  0
LINE
  8
0
  10
2.5992
  20
0.51892
  30
0
  11
2.7493
  21
0.50474
  31
0
  0
LINE
  8
0
  10
2.7493
  20
0.50474
  30
0
  11
2.9
  21
0.5
  31
0
  0
LINE
  8
0
  10
2.9
  20
0.5
  30
0
  11
3.0507
  21
0.50474
  31
0
  0
LINE
  8
0
  10
3.0507
  20
0.50474
  30
0
  11
3.2008
  21
0.51892
  31
0
  0
LINE
  8
0
  10
3.2008
  20
0.51892
  30
0
  11
3.34972
  21
0.54251
  31
0
  0
LINE
  8
0
  10
3.34972
  20
0.54251
  30
0
  11
3.49686
  21
0.5754
  31
0
  0
LINE
  8
0
  10
3.49686
  20
0.5754
  30
0
  11
3.64164
  21
0.61746
  31
0
  0
LINE
  8
0
  10
3.64164
  20
0.61746
  30
0
  11
3.7835
  21
0.66854
  31
0
  0
LINE
  8
0
  10
3.7835
  20
0.66854
  30
0
  11
3.92187
  21
0.72842
  31
0
  0
LINE
  8
0
  10
3.92187
  20
0.72842
  30
0
  11
4.05621
  21
0.79686
  31
0
  0
LINE
  8
0
  10
4.05621
  20
0.79686
  30
0
  11
4.18598
  21
0.87361
  31
0
  0
LINE
  8
0
  10
4.18598
  20
0.87361
  30
0
  11
4.31068
  21
0.95836
  31
0
  0
LINE
  8
0
  10
4.31068
  20
0.95836
  30
0
  11
4.42982
  21
1.05077
  31
0
  0
LINE
  8
0
  10
4.42982
  20
1.05077
  30
0
  11
4.54291
  21
1.15048
  31
0
  0
LINE
  8
0
  10
4.54291
  20
1.15048
  30
0
  11
4.64952
  21
1.25709
  31
0
  0
LINE
  8
0
  10
4.64952
  20
1.25709
  30
0
  11
4.74923
  21
1.37018
  31
0
  0
LINE
  8
0
  10
4.74923
  20
1.37018
  30
0
  11
4.84164
  21
1.48932
  31
0
  0
LINE
  8
0
  10
4.84164
  20
1.48932
  30
0
  11
4.92639
  21
1.61402
  31
0
  0
LINE
  8
0
  10
4.92639
  20
1.61402
  30
0
  11
5.00314
  21
1.74379
  31
0
  0
LINE
  8
0
  10
5.00314
  20
1.74379
  30
0
  11
5.07158
  21
1.87813
  31
0
  0
LINE
  8
0
  10
5.07158
  20
1.87813
  30
0
  11
5.13146
  21
2.0165
  31
0
  0
LINE
  8
0
  10
5.13146
  20
2.0165
  30
0
  11
5.18254
  21
2.15836
  31
0
  0
LINE
  8
0
  10
5.18254
  20
2.15836
  30
0
  11
5.2246
  21
2.30314
  31
0
  0
LINE
  8
0
  10
5.2246
  20
2.30314
  30
0
  11
5.25749
  21
2.45028
  31
0
  0
LINE
  8
0
  10
5.25749
  20
2.45028
  30
0
  11
5.28108
  21
2.5992
  31
0
  0
LINE
  8
0
  10
5.28108
  20
2.5992
  30
0
  11
5.29526
  21
2.7493
  31
0
  0
LINE
  8
0
  10
5.29526
  20
2.7493
  30
0
  11
5.3
  21
2.9
  31
0
  0
LINE
  8
0
  10
5.3
  20
2.9
  30
0
  11
5.3
  21
2.9
  31
0
  0
LINE
  8
0
  10
1.93333
  20
2.9
  30
0
  11
3.86667
  21
2.9
  31
0
  0
LINE
  8
0
  10
2.9
  20
1.93333
  30
0
  11
2.9
  21
3.86667
  31
0
  0
ENDSEC
  0
EOF
